<?xml version="1.0" encoding="UTF-8" standalone="no"?>
<!-- Created with Inkscape (http://www.inkscape.org/) -->

<svg
   xmlns:dc="http://purl.org/dc/elements/1.1/"
   xmlns:cc="http://creativecommons.org/ns#"
   xmlns:rdf="http://www.w3.org/1999/02/22-rdf-syntax-ns#"
   xmlns:svg="http://www.w3.org/2000/svg"
   xmlns="http://www.w3.org/2000/svg"
   xmlns:sodipodi="http://sodipodi.sourceforge.net/DTD/sodipodi-0.dtd"
   xmlns:inkscape="http://www.inkscape.org/namespaces/inkscape"
   width="311.64441mm"
   height="435.92084mm"
   viewBox="0 0 1104.2518 1544.6014"
   id="svg2"
   version="1.1"
   inkscape:version="0.92.1 r15371"
   sodipodi:docname="orion.svg">
  <defs
     id="defs4">
    <pattern
       y="0"
       x="0"
       height="6"
       width="6"
       patternUnits="userSpaceOnUse"
       id="EMFhbasepattern" />
    <pattern
       y="0"
       x="0"
       height="6"
       width="6"
       patternUnits="userSpaceOnUse"
       id="EMFhbasepattern-5" />
  </defs>
  <sodipodi:namedview
     id="base"
     pagecolor="#ffffff"
     bordercolor="#666666"
     borderopacity="1.0"
     inkscape:pageopacity="0.0"
     inkscape:pageshadow="2"
     inkscape:zoom="0.3067209"
     inkscape:cx="511.78185"
     inkscape:cy="772.30071"
     inkscape:document-units="px"
     inkscape:current-layer="layer1"
     showgrid="false"
     gridtolerance="50"
     objecttolerance="10000"
     inkscape:snap-smooth-nodes="true"
     inkscape:snap-intersection-paths="false"
     inkscape:snap-grids="false"
     inkscape:snap-to-guides="false"
     inkscape:snap-bbox="false"
     inkscape:snap-bbox-midpoints="true"
     inkscape:snap-nodes="true"
     inkscape:window-width="1440"
     inkscape:window-height="841"
     inkscape:window-x="0"
     inkscape:window-y="0"
     inkscape:window-maximized="1"
     inkscape:object-paths="false"
     inkscape:object-nodes="true"
     inkscape:snap-midpoints="false"
     inkscape:snap-others="true"
     inkscape:snap-object-midpoints="true"
     inkscape:snap-center="false"
     guidetolerance="47"
     fit-margin-top="0"
     fit-margin-left="0"
     fit-margin-right="0"
     fit-margin-bottom="0" />
  <metadata
     id="metadata7">
    <rdf:RDF>
      <cc:Work
         rdf:about="">
        <dc:format>image/svg+xml</dc:format>
        <dc:type
           rdf:resource="http://purl.org/dc/dcmitype/StillImage" />
        <dc:title></dc:title>
      </cc:Work>
    </rdf:RDF>
  </metadata>
  <g
     inkscape:label="Layer 1"
     inkscape:groupmode="layer"
     id="layer1"
     transform="translate(-775.18546,1478.7357)">
    <path
       inkscape:connector-curvature="0"
       id="path41619-3"
       d="m 1383.7496,-947.72105 a 16.123045,16.123045 0 0 1 -7.0446,-21.6859 16.123045,16.123045 0 0 1 21.6859,-7.0446 16.123045,16.123045 0 0 1 7.0446,21.6859 16.123045,16.123045 0 0 1 -21.6859,7.0446 z"
       style="fill:#0000ff;fill-opacity:1;stroke:#000000;stroke-width:1.43315959;stroke-linecap:round;stroke-miterlimit:4;stroke-dasharray:none;stroke-opacity:1" />
    <path
       inkscape:connector-curvature="0"
       id="path41619-3-6"
       d="m 1490.067,-814.34644 a 2.8663191,2.8663191 0 0 1 -1.2524,-3.85523 2.8663191,2.8663191 0 0 1 3.8554,-1.2524 2.8663191,2.8663191 0 0 1 1.2523,3.85522 2.8663191,2.8663191 0 0 1 -3.8553,1.25241 z"
       style="fill:#0000ff;fill-opacity:1;stroke:#000000;stroke-width:1.43315959;stroke-linecap:round;stroke-miterlimit:4;stroke-dasharray:none;stroke-opacity:1" />
    <path
       inkscape:connector-curvature="0"
       id="path41619-3-4"
       d="m 1383.4004,-719.41778 a 6.9687387,6.9687387 0 0 1 -3.0448,-9.37312 6.9687387,6.9687387 0 0 1 9.3731,-3.0449 6.9687387,6.9687387 0 0 1 3.0449,9.37323 6.9687387,6.9687387 0 0 1 -9.3732,3.04479 z"
       style="fill:#0000ff;fill-opacity:1;stroke:#000000;stroke-width:1.43315959;stroke-linecap:round;stroke-miterlimit:4;stroke-dasharray:none;stroke-opacity:1" />
    <path
       inkscape:connector-curvature="0"
       id="path41619-3-4-1"
       d="m 1169.2163,-750.01066 a 4.818999,4.818999 0 0 1 -2.1056,-6.4817 4.818999,4.818999 0 0 1 6.4817,-2.10553 4.818999,4.818999 0 0 1 2.1056,6.4817 4.818999,4.818999 0 0 1 -6.4817,2.10553 z"
       style="fill:#0000ff;fill-opacity:1;stroke:#000000;stroke-width:1.43315959;stroke-linecap:round;stroke-miterlimit:4;stroke-dasharray:none;stroke-opacity:1" />
    <path
       inkscape:connector-curvature="0"
       id="path41619-3-4-1-5"
       d="m 1138.0967,-776.36535 a 6.8075079,6.8075079 0 0 1 -2.9743,-9.15626 6.8075079,6.8075079 0 0 1 9.1562,-2.97437 6.8075079,6.8075079 0 0 1 2.9744,9.15627 6.8075079,6.8075079 0 0 1 -9.1563,2.97436 z"
       style="fill:#0000ff;fill-opacity:1;stroke:#000000;stroke-width:1.43315959;stroke-linecap:round;stroke-miterlimit:4;stroke-dasharray:none;stroke-opacity:1" />
    <path
       inkscape:connector-curvature="0"
       id="path41619-3-4-1-5-1"
       d="m 1108.8609,-808.71671 a 6.1984148,6.1984148 0 0 1 -2.7082,-8.33703 6.1984148,6.1984148 0 0 1 8.337,-2.70826 6.1984148,6.1984148 0 0 1 2.7083,8.33703 6.1984148,6.1984148 0 0 1 -8.3371,2.70826 z"
       style="fill:#0000ff;fill-opacity:1;stroke:#000000;stroke-width:1.43315959;stroke-linecap:round;stroke-miterlimit:4;stroke-dasharray:none;stroke-opacity:1" />
    <path
       inkscape:connector-curvature="0"
       id="path41619-3-4-1-5-1-8"
       d="m 936.77144,-572.23268 a 13.579188,13.579188 0 0 1 -5.93308,-18.26434 13.579188,13.579188 0 0 1 18.26435,-5.93313 13.579188,13.579188 0 0 1 5.93309,18.26434 13.579188,13.579188 0 0 1 -18.26436,5.93313 z"
       style="fill:#0000ff;fill-opacity:1;stroke:#000000;stroke-width:1.43315959;stroke-linecap:round;stroke-miterlimit:4;stroke-dasharray:none;stroke-opacity:1" />
    <path
       inkscape:connector-curvature="0"
       id="path41619-3-4-1-5-1-8-2"
       d="m 860.79392,-834.08413 a 5.6609803,5.6609803 0 0 1 -2.47342,-7.61416 5.6609803,5.6609803 0 0 1 7.61416,-2.47346 5.6609803,5.6609803 0 0 1 2.47344,7.61424 5.6609803,5.6609803 0 0 1 -7.61418,2.47338 z"
       style="fill:#0000ff;fill-opacity:1;stroke:#000000;stroke-width:1.43315959;stroke-linecap:round;stroke-miterlimit:4;stroke-dasharray:none;stroke-opacity:1" />
    <path
       inkscape:connector-curvature="0"
       id="path41619-3-4-3"
       d="m 1535.5334,-505.97356 a 1.7556205,1.7556205 0 0 1 -0.7671,-2.36133 1.7556205,1.7556205 0 0 1 2.3614,-0.7671 1.7556205,1.7556205 0 0 1 0.7671,2.36133 1.7556205,1.7556205 0 0 1 -2.3614,0.7671 z"
       style="fill:#0000ff;fill-opacity:1;stroke:#000000;stroke-width:1.43315959;stroke-linecap:round;stroke-miterlimit:4;stroke-dasharray:none;stroke-opacity:1" />
    <path
       inkscape:connector-curvature="0"
       id="path41619-3-4-3-7"
       d="m 1500.0485,-467.85699 a 1.9634286,1.9634286 0 0 1 -0.8579,-2.64085 1.9634286,1.9634286 0 0 1 2.6409,-0.85784 1.9634286,1.9634286 0 0 1 0.8578,2.64075 1.9634286,1.9634286 0 0 1 -2.6408,0.85794 z"
       style="fill:#0000ff;fill-opacity:1;stroke:#000000;stroke-width:1.43315959;stroke-linecap:round;stroke-miterlimit:4;stroke-dasharray:none;stroke-opacity:1" />
    <path
       inkscape:connector-curvature="0"
       id="path41619-3-4-3-7-4"
       d="m 1440.9421,-449.68215 a 3.4145026,3.4145026 0 0 1 -1.4918,-4.59257 3.4145026,3.4145026 0 0 1 4.5926,-1.49188 3.4145026,3.4145026 0 0 1 1.4918,4.59256 3.4145026,3.4145026 0 0 1 -4.5926,1.49189 z"
       style="fill:#0000ff;fill-opacity:1;stroke:#000000;stroke-width:1.43315959;stroke-linecap:round;stroke-miterlimit:4;stroke-dasharray:none;stroke-opacity:1" />
    <path
       inkscape:connector-curvature="0"
       id="path41619-3-4-3-7-4-2"
       d="m 1395.2038,-455.61515 a 2.7122545,2.7122545 0 0 1 -1.1851,-3.64799 2.7122545,2.7122545 0 0 1 3.6481,-1.18507 2.7122545,2.7122545 0 0 1 1.185,3.64809 2.7122545,2.7122545 0 0 1 -3.648,1.18497 z"
       style="fill:#0000ff;fill-opacity:1;stroke:#000000;stroke-width:1.43315959;stroke-linecap:round;stroke-miterlimit:4;stroke-dasharray:none;stroke-opacity:1" />
    <path
       inkscape:connector-curvature="0"
       id="path41619-3-4-6"
       d="m 1296.912,-462.18585 a 1.2683462,1.2683462 0 0 1 -0.5542,-1.70602 1.2683462,1.2683462 0 0 1 1.7059,-0.55441 1.2683462,1.2683462 0 0 1 0.5541,1.70592 1.2683462,1.2683462 0 0 1 -1.7059,0.55441 z"
       style="fill:#0000ff;fill-opacity:1;stroke:#000000;stroke-width:1.43315959;stroke-linecap:round;stroke-miterlimit:4;stroke-dasharray:none;stroke-opacity:1" />
    <path
       inkscape:connector-curvature="0"
       id="path41619-3-4-6-3"
       d="m 1265.777,-497.62831 a 1.8631074,1.8631074 0 0 1 -0.814,-2.50599 1.8631074,1.8631074 0 0 1 2.5059,-0.81403 1.8631074,1.8631074 0 0 1 0.8141,2.506 1.8631074,1.8631074 0 0 1 -2.506,0.81402 z"
       style="fill:#0000ff;fill-opacity:1;stroke:#000000;stroke-width:1.43315959;stroke-linecap:round;stroke-miterlimit:4;stroke-dasharray:none;stroke-opacity:1" />
    <path
       inkscape:connector-curvature="0"
       id="path41619-3-43"
       d="m 1459.5925,-1055.0086 a 2.0064234,2.0064234 0 0 1 -0.8768,-2.6987 2.0064234,2.0064234 0 0 1 2.6988,-0.8767 2.0064234,2.0064234 0 0 1 0.8766,2.6987 2.0064234,2.0064234 0 0 1 -2.6986,0.8767 z"
       style="fill:#0000ff;fill-opacity:1;stroke:#000000;stroke-width:1.43315959;stroke-linecap:round;stroke-miterlimit:4;stroke-dasharray:none;stroke-opacity:1" />
    <path
       inkscape:connector-curvature="0"
       id="path41619-3-43-3"
       d="m 1613.6316,-1082.6715 a 2.0064234,2.0064234 0 0 1 -0.8766,-2.6987 2.0064234,2.0064234 0 0 1 2.6987,-0.8766 2.0064234,2.0064234 0 0 1 0.8766,2.6987 2.0064234,2.0064234 0 0 1 -2.6987,0.8766 z"
       style="fill:#0000ff;fill-opacity:1;stroke:#000000;stroke-width:1.43315959;stroke-linecap:round;stroke-miterlimit:4;stroke-dasharray:none;stroke-opacity:1" />
    <path
       inkscape:connector-curvature="0"
       id="path41619-3-43-3-4"
       d="m 1592.0981,-1116.4541 a 1.877439,1.877439 0 0 1 -0.8203,-2.5252 1.877439,1.877439 0 0 1 2.5252,-0.8203 1.877439,1.877439 0 0 1 0.8204,2.5252 1.877439,1.877439 0 0 1 -2.5253,0.8203 z"
       style="fill:#0000ff;fill-opacity:1;stroke:#000000;stroke-width:1.43315959;stroke-linecap:round;stroke-miterlimit:4;stroke-dasharray:none;stroke-opacity:1" />
    <path
       inkscape:connector-curvature="0"
       id="path41619-3-43-3-3"
       d="m 1801.4364,-999.92905 a 1.9634286,1.9634286 0 0 1 -0.8578,-2.64065 1.9634286,1.9634286 0 0 1 2.6408,-0.858 1.9634286,1.9634286 0 0 1 0.8579,2.6409 1.9634286,1.9634286 0 0 1 -2.6409,0.85775 z"
       style="fill:#0000ff;fill-opacity:1;stroke:#000000;stroke-width:1.43315959;stroke-linecap:round;stroke-miterlimit:4;stroke-dasharray:none;stroke-opacity:1" />
    <path
       inkscape:connector-curvature="0"
       id="path41619-3-43-3-9"
       d="m 1774.3871,-1066.6985 a 2.0064234,2.0064234 0 0 1 -0.8767,-2.6986 2.0064234,2.0064234 0 0 1 2.6987,-0.8767 2.0064234,2.0064234 0 0 1 0.8766,2.6987 2.0064234,2.0064234 0 0 1 -2.6986,0.8766 z"
       style="fill:#0000ff;fill-opacity:1;stroke:#000000;stroke-width:1.43315959;stroke-linecap:round;stroke-miterlimit:4;stroke-dasharray:none;stroke-opacity:1" />
  </g>
</svg>
